<?xml version="1.0" encoding="utf-8"?>
<svg version="1.1" id="mrakcw-logo-black" xmlns="http://www.w3.org/2000/svg" xmlns:xlink="http://www.w3.org/1999/xlink" x="0px" y="0px" viewBox="0 0 84.3 84.3" style="enable-background:new 0 0 84.3 84.3;" xml:space="preserve">
	<title>MrakCw - junior front end © 2021</title>
	<style type="text/css">
		.st0{fill:#FFFFFF;}
	</style>
	<g id="dev-1">
		<g id="list-1">
			<g>
				<g>
					<path d="M3.1,46.7l6.5,34.9l41.6-9.9l-11.9-27L3.1,46.7z"/>
				</g>
			</g>
		</g>
		<g id="Coder">
			<path class="st0" d="M25.8,59.3c-0.4,0.1-0.8,0.5-0.5,0.8c0,0,0,0,0,0.1c0.2,0.5,0.7,0.7,1.3,0.6c0.6-0.1,0.8-0.5,0.5-0.9
				C26.7,59.5,26.4,59.3,25.8,59.3z"/>
			<path class="st0" d="M22.7,59.9c-0.4,0.1-0.8,0.5-0.5,0.9c0.2,0.3,0.7,0.6,1.1,0.6h0.1c0.4-0.1,0.8-0.5,0.5-0.8
				C23.8,60,23.1,59.8,22.7,59.9z"/>
			<path class="st0" d="M28.9,58.9c-0.6,0.1-0.8,0.5-0.5,0.9c0.2,0.5,0.7,0.7,1.3,0.6c0.4,0,0.8-0.5,0.5-0.9
				C29.9,59.1,29.3,58.9,28.9,58.9z"/>
			<path class="st0" d="M24.1,64.9c-0.4,0.1-0.7,0-0.8-0.3c-0.6-0.6-0.7-1-0.9-1.5c-0.5-0.9-1-1.7-2.3-2c0.4-0.3,0.5-0.8,0.4-1.4
				c-0.1-0.3-0.2-0.7-0.4-1.1c-0.1-0.3-0.3-0.7-0.5-1c-0.3-0.6-0.3-0.8,0.5-0.9c0.1,0,0.3-0.1,0.4-0.1L20,55.4c0,0-0.1,0-0.2,0
				c-0.1,0-0.3,0.1-0.4,0.1c-1,0.2-1.4,0.7-1.2,1.6c0.1,0.6,0.4,1.1,0.7,1.7c0.2,0.3,0.3,0.6,0.3,0.9c0.1,0.6-0.1,0.8-0.8,0.9
				c-0.1,0-0.1,0.1-0.3,0.1l0.6,1.2c1.3-0.1,1.5,0.2,2.1,1.1c0.2,0.3,0.3,0.8,0.5,1.1c0.2,0.3,0.4,0.7,0.7,1c0.6,0.9,2,1,3.2,0.6
				l-0.5-1.1C24.4,64.7,24.3,64.9,24.1,64.9z"/>
			<path class="st0" d="M33.3,58.5c-0.6,0.1-0.9,0-1.3-0.5c-0.2-0.2-0.4-0.6-0.6-0.8c-0.3-0.6-0.5-1-0.8-1.6
				c-0.7-1.2-1.7-1.6-2.8-1.5c-0.3,0-0.6,0.1-0.8,0.2l0.5,1.1c0.3,0,0.4-0.1,0.7-0.1c0.3-0.1,0.6,0,0.8,0.3c0.2,0.2,0.3,0.6,0.5,0.9
				c0.4,0.6,0.7,1.1,1,1.7c0.4,0.5,0.9,0.8,1.5,0.9c-0.6,0.6-0.6,1.2-0.3,2c0.3,0.6,0.5,1,0.6,1.6c0.2,0.5,0,0.7-0.5,0.8
				c-0.1,0-0.3,0.1-0.6,0.1l0.5,1.1c0.3-0.1,0.7-0.1,1-0.1c1-0.2,1.3-0.7,1.3-1.5c-0.1-0.5-0.3-0.9-0.4-1.2c-0.2-0.3-0.3-0.8-0.4-1.1
				c-0.3-0.6,0.1-0.9,0.8-1.1c0.1,0,0.1,0,0.1-0.1l-0.6-1.2C33.4,58.5,33.3,58.5,33.3,58.5z"/>
			<path class="st0" d="M21.4,49.8c-7,1-10.5,6.6-7.8,12.2c2.7,5.7,10.3,9.4,17.3,8.3c7-1,10.5-6.6,7.8-12.2
				C36.1,52.5,28.3,48.8,21.4,49.8z M30.5,69.3c-6.3,1-13.4-2.4-15.7-7.5c-2.4-5.1,0.6-10.1,7.1-11c6.3-1,13.4,2.4,15.7,7.5
				C40,63.4,36.8,68.4,30.5,69.3z"/>
		</g>
	</g>
	<g id="dev-2">
		<g>
			<path class="st0" d="M46.6,28.4c0.1,0.5,0.3,1,0.5,1.3c0.3,0.4,0.8,0.6,1.4,0.6c0.9,0.1,1.7-0.2,2.5-0.8c0.7-0.6,1.3-1.3,1.8-2
				c0,0.8,0.2,1.3,0.5,1.7c0.3,0.4,0.7,0.6,1.1,0.7c0.5,0.2,1,0.2,1.6,0.1c0.4,0,0.6-0.1,0.6-0.3c0.1-0.1,0.1-0.2,0-0.3l-0.1-0.2
				c-0.5-0.6-0.7-1.2-0.7-1.9c0-0.7,0.1-1.5,0.3-2.4c0.2-0.8,0.5-1.6,0.8-2.4c0.1-0.3,0.1-0.6-0.1-0.8c-0.2-0.5-0.5-0.8-1.1-1
				c0,0-0.1,0-0.1,0c-0.4-0.1-0.7,0-1,0.2l-0.1,0l0,0c0.1-0.5,0.1-0.9,0.1-1.3c-0.1-0.4-0.3-0.7-0.7-0.9c-0.2-0.1-0.4-0.2-0.6-0.2
				c-0.2,0-0.4,0-0.5,0c-0.8,0-1.6,0.3-2.2,1c-0.7,0.7-1.2,1.3-1.7,2c-0.2,0.3-0.5,0.8-0.8,1.4c-0.3,0.6-0.6,1.2-0.8,1.8
				c-0.2,0.6-0.4,1.3-0.6,1.9C46.5,27.3,46.5,27.8,46.6,28.4z M49,25.1c0.1-0.5,0.2-1.1,0.5-1.7c0.3-0.6,0.6-1.1,0.9-1.6
				c0.3-0.5,0.7-0.9,1-1.1c0.4-0.3,0.7-0.3,0.9-0.2c0.3,0.2,0.4,0.4,0.4,0.8c-0.1,0.4-0.2,0.6-0.3,0.8l0,0.1l-0.1,0.2
				c-0.1,0.2-0.1,0.4,0,0.5c0,0.1,0.2,0.1,0.5,0.1c0.3,0,0.5-0.1,0.7-0.3c0.2-0.1,0.3-0.3,0.5-0.5c-0.2,0.4-0.3,0.7-0.4,1.1
				c-0.1,0.4-0.2,0.7-0.3,1.1c-0.1,0.1-0.1,0.3-0.1,0.4c0,0.1,0,0.3-0.1,0.4c-0.4,0.4-0.9,0.9-1.4,1.3c-0.5,0.4-1,0.6-1.3,0.6
				c-0.5,0-0.9-0.1-1.1-0.5C49,26,49,25.6,49,25.1z"/>
			<path class="st0" d="M39.4,20.1c-0.4,0-0.6,0.1-0.7,0.4c-0.3,0.8-0.6,1.5-0.9,2.1c-0.3,0.6-0.5,1.3-0.7,1.9
				c-0.2,0.6-0.3,1.3-0.5,2c-0.1,0.7-0.2,1.4-0.2,2.2c0,0.3,0.1,0.7,0.2,0.9c0.1,0.3,0.3,0.5,0.6,0.7c0.3,0.2,0.7,0.4,1.1,0.5
				c0.5,0.1,1.1,0.2,1.9,0.2c0,0,0.1,0,0.1,0c0.1-0.1,0.2-0.2,0.3-0.4c0.1-0.1,0.1-0.3,0-0.4c-0.2-0.4-0.3-1-0.2-1.5
				c0.1-0.6,0.2-1.2,0.4-1.8c0.2-0.6,0.5-1.1,0.7-1.7c0.3-0.5,0.6-0.9,0.8-1.3c0,0,0.1,0,0.1,0l0,0.1c-0.3,0.7-0.4,1.1-0.2,1.2
				c0.1,0.2,0.2,0.3,0.4,0.4c0.2,0.2,0.5,0.3,0.8,0.3c0.3,0,0.6,0,1-0.1c0.3-0.1,0.7-0.1,0.9-0.3c0.3-0.1,0.5-0.2,0.7-0.3
				c0.2-0.1,0.2-0.2,0.2-0.3c0-0.1-0.1-0.2-0.2-0.3c-0.2-0.1-0.3-0.2-0.3-0.4c0-0.2,0-0.4,0.1-0.7c0.1-0.3,0.2-0.5,0.3-0.8
				c0.1-0.3,0.3-0.6,0.4-0.9c0.1-0.3,0.3-0.7,0.4-1.1c0.1-0.4-0.1-0.8-0.4-1.1c-0.3-0.2-0.5-0.3-0.8-0.2c-0.3,0.1-0.6,0.2-0.9,0.3
				c-0.1,0.1-0.1,0.1-0.2,0.1c-0.1,0-0.2,0.1-0.2,0.2c-0.7,0.4-1.3,0.9-1.8,1.4c-0.5,0.5-0.9,1-1.2,1.5c-0.3,0.5-0.6,0.9-0.8,1.3
				c-0.2,0.4-0.3,0.6-0.4,0.8c0.1-0.2,0.1-0.3,0.2-0.5c0.1-0.1,0.1-0.3,0.2-0.5c0.2-0.5,0.3-0.9,0.5-1.3c0.2-0.4,0.3-0.7,0.5-1
				c0.2-0.4,0.2-0.7,0-1c-0.2-0.3-0.4-0.4-0.5-0.5c-0.2-0.1-0.3-0.2-0.4-0.2c-0.1,0-0.2-0.1-0.3-0.1C39.9,20.2,39.7,20.2,39.4,20.1z"
				/>
			<path class="st0" d="M69,17c-0.2-0.1-0.4-0.2-0.6-0.2c-0.2,0-0.4,0-0.6,0c-0.2,0-0.5,0-0.7,0.1c-0.7,0.2-1.4,0.5-2.1,1.1
				c-0.7,0.6-1.4,1.2-1.9,1.9c-0.6,0.7-1.1,1.3-1.6,1.9c-0.4,0.6-0.7,1-0.9,1.2c0.6-1.5,1.2-2.9,1.8-4.3c0.6-1.4,1.2-2.6,1.8-3.6
				c0.6-1,1.2-1.9,1.8-2.6c0.6-0.7,1.1-1.1,1.7-1.2c0.1,0,0.2-0.1,0.3-0.2c0.1-0.1,0.1-0.1,0.1-0.2l0-0.1c-0.1-0.9-0.5-1.5-1-1.6
				c-0.5-0.1-1-0.2-1.5-0.1c-0.1,0-0.3,0-0.3,0.1c-0.1,0-0.2,0-0.2,0.1c-0.1,0-0.2,0.1-0.2,0.1c-0.5,0.2-1,0.6-1.5,1.3
				c-0.5,0.7-1,1.5-1.5,2.5c-0.5,1-1,2-1.4,3.1c-0.4,1.1-0.8,2.1-1.2,3.1c-0.3,1-0.6,1.8-0.8,2.5c-0.2,0.7-0.3,1.1-0.4,1.2
				c-0.1,0.3-0.2,0.7-0.3,1.1c-0.1,0.4-0.2,0.8-0.3,1.3c-0.1,0.4-0.1,0.9-0.1,1.3c0,0.4,0.1,0.8,0.2,1.1c0.2,0.4,0.4,0.7,0.6,0.9
				c0.2,0.2,0.5,0.4,0.7,0.5c0.2,0.1,0.4,0.2,0.6,0.2c0.2,0,0.3,0,0.4,0c0.2,0,0.3,0,0.4-0.2c0.1-0.2,0.1-0.5,0.2-0.8
				c0.2-0.9,0.3-1.6,0.6-2.4c0.2-0.7,0.5-1.4,0.8-2c-0.3,1.1-0.3,2-0.2,2.9c0.1,0.9,0.6,1.4,1.3,1.7l0.4,0.1c0.2,0,0.3,0.1,0.5,0.1
				c0.2,0,0.4,0,0.6-0.1l0,0l0.1,0c0.7-0.2,1.4-0.5,1.9-1c0.6-0.5,1-1.1,1.3-1.7c0.2-0.5,0.3-0.8,0-0.9c-0.2-0.1-0.4-0.1-0.6-0.1
				C66.5,25,66,25.1,65.5,25c-0.3,0-0.5-0.1-0.9-0.2c-0.3-0.1-0.6-0.3-0.9-0.5c-0.3-0.2-0.5-0.5-0.6-0.8c-0.1-0.3-0.1-0.8,0-1.3
				l0-0.1c0-0.1,0.1-0.2,0.2-0.5c0.1-0.3,0.3-0.6,0.5-0.9c0.1-0.1,0.2-0.2,0.3-0.3c0.1-0.1,0.2-0.2,0.3-0.3c0.1-0.1,0.3-0.3,0.3-0.4
				c0.1-0.1,0.2-0.2,0.3-0.3c0,0,0,0,0,0c0,0,0,0,0,0l0.3-0.2c0.3-0.1,0.5-0.1,0.5,0c0,0.1,0,0.2-0.1,0.3c-0.4,0.7-0.7,1.4-0.9,1.9
				c0,0.1,0,0.1,0,0.2c0,0.1,0.1,0.1,0.3,0.1c0.1,0,0.3,0,0.5,0c0.3,0,0.6,0,0.9-0.1c0.3-0.1,0.7-0.2,1-0.4c0.3-0.2,0.6-0.4,0.8-0.7
				c0.1-0.2,0.3-0.4,0.5-0.8c0.2-0.3,0.3-0.7,0.4-1c0.1-0.4,0.1-0.7,0.1-1C69.4,17.4,69.3,17.2,69,17z"/>
			<path class="st0" d="M56.9,31c-0.6-0.2-1.3-0.2-2.1-0.2c-0.8,0-1.7,0.2-2.6,0.4c-0.9,0.2-2,0.5-3.3,0.9c-1.3,0.4-2.5,0.8-3.6,1.1
				c-1.2,0.4-2.2,0.7-3,0.9c-0.9,0.3-1.3,0.4-1.4,0.3c-0.1-0.5-0.2-0.9-0.4-1.2c-0.2-0.3-0.4-0.5-0.7-0.8c-0.3-0.2-0.7-0.3-1.2-0.2
				c-0.5,0.1-1,0.3-1.3,0.7c-0.3,0.4-0.5,0.9-0.5,1.4c0,0.5,0.1,1,0.4,1.5c0.3,0.5,0.7,0.8,1.4,1c0,0.3-0.1,0.5-0.2,0.7
				c0,0.2-0.1,0.4-0.2,0.5c-0.1,0.2-0.3,0.2-0.4,0.2c-0.2,0-0.4,0-0.5-0.2c-0.2-0.2-0.3-0.3-0.5-0.6c-0.5-0.7-0.8-1.4-1-2.3
				c-0.2-0.9-0.4-1.7-0.5-2.6c0-0.6-0.1-1.2-0.1-1.6c0-0.5,0-0.9,0-1.1c0-0.2,0-0.3,0-0.5c0-0.2,0-0.3,0-0.5c0-0.1,0-0.3,0-0.4
				c0-0.1,0-0.2,0-0.4l0,0c0-0.3,0.1-0.7,0.1-1c0-0.3,0.1-0.6,0.2-1c0.1-0.6,0.2-1.3,0.4-2c0.2-0.7,0.5-1.5,0.8-2.3
				c0.3-0.8,0.8-1.5,1.3-2.3c0.5-0.7,1.1-1.4,1.9-1.9c0.1-0.1,0.2-0.2,0.2-0.3c0-0.1-0.1-0.2-0.1-0.2c-0.2-0.3-0.6-0.8-1.2-1.3
				c-0.1-0.1-0.2-0.3-0.4-0.3c-0.1-0.1-0.3-0.2-0.4-0.3C37.5,15.1,37.2,15,37,15c-0.2,0-0.7,0.3-1.4,0.9c-0.5,0.5-1.2,1.2-1.9,2.1
				c-0.7,0.9-1.5,2.1-2.4,3.7c0.2-0.5,0.4-0.9,0.5-1.4c0.2-0.4,0.3-0.7,0.5-1.2c0.2-0.4,0.4-0.8,0.6-1.1c0.1-0.1,0.1-0.1,0.1-0.2
				c0-0.1,0-0.1,0-0.1c-0.1-0.2-0.3-0.4-0.5-0.8c-0.2-0.3-0.4-0.6-0.7-0.9c-0.3-0.2-0.5-0.4-0.8-0.4c-0.3-0.1-0.6,0.1-1,0.5
				c-0.4,0.5-0.8,0.9-1.1,1.4c-0.3,0.5-0.5,0.9-0.7,1.4c-0.2,0.5-0.4,1-0.6,1.5c0.3-0.8,0.4-1.5,0.4-2.1c0-0.6,0-1.1-0.1-1.4
				c-0.1-0.4-0.3-0.8-0.5-1.1c-0.6-0.8-1.3-1.2-2.1-1.1c-0.9,0-1.7,0.2-2.5,0.6c-1,0.4-1.9,1-2.9,1.7c-1.3,1-2.2,1.9-2.8,2.8
				c-0.6,0.9-1,1.6-1.2,2.3c-0.2,0.7-0.3,1.3-0.2,1.7c0,0.5,0.1,0.8,0.3,1.1c0.2,0.6,0.6,1.1,1.2,1.4c0.5,0.4,1.2,0.5,2.1,0.3
				c0.4-0.1,0.7-0.2,1-0.4c0.2-0.2,0.4-0.3,0.6-0.5c0.1-0.2,0.2-0.4,0.3-0.7l0-0.1c0-0.1-0.1-0.1-0.1-0.2c-0.2,0-0.3,0-0.5,0.1
				c-0.1,0-0.2,0-0.3,0c-0.1,0-0.2-0.2-0.1-0.4c0-0.1,0.1-0.4,0.1-1c0.1-0.5,0.3-1.1,0.6-1.8c0.3-0.7,0.9-1.4,1.5-2.2
				c0.7-0.8,1.6-1.4,2.8-2.1c0,0,0.1-0.1,0.1-0.1c0.1,0,0.2,0,0.3,0.1c0.1,0,0.1,0.2,0,0.5c-0.1,0.1-0.3,0.5-0.8,1.3
				c-0.5,0.8-1,1.8-1.5,3c-0.5,1.2-1.1,2.5-1.5,3.9c-0.5,1.4-0.8,2.7-0.9,4c-0.1,1.3,0,2.4,0.3,3.4c0.3,1,1,1.6,2.1,2
				c0.2,0.1,0.4,0.1,0.6,0.2c0.2,0,0.4,0,0.7,0c0.3,0,0.6-0.1,0.9-0.2c0.1,0,0.1-0.1,0.2-0.2c0.1-0.1,0.1-0.2,0-0.3
				c-0.2-0.3-0.5-0.9-0.8-1.7c-0.3-0.8-0.4-1.9-0.2-3.1c0.1-1,0.3-2,0.7-3c0.4-1,0.8-1.9,1.2-2.8c0.5-1,1-1.9,1.6-2.8
				c-0.8,1.8-1.3,3.4-1.6,4.9c-0.1,0.6-0.2,1.3-0.2,1.9c0,0.6,0,1.2,0.1,1.7c0.1,0.5,0.3,1,0.6,1.4c0.3,0.4,0.7,0.7,1.2,0.8
				c0,0.1,0.1,0.1,0.3,0.2c0.1,0,0.3,0.1,0.5,0.1c0.2,0,0.5,0,0.9,0c0.1,0,0.1,0,0.2-0.1c0.1,0,0.1-0.1,0.1-0.3
				c0-0.3-0.1-0.8-0.1-1.4c0-0.7,0-1.5,0.1-2.4c0.1-0.9,0.4-2,0.9-3.2c0.4-1.2,1.1-2.5,2-3.8c-0.4,0.9-0.6,1.8-0.8,2.5
				c-0.2,0.7-0.3,1.1-0.3,1.2c-0.2,0.8-0.4,1.6-0.6,2.3c-0.1,0.8-0.2,1.6-0.3,2.4c0,0.3,0,0.8,0,1.4c0,0.6,0.1,1.3,0.2,2.1
				c0.1,0.8,0.4,1.6,0.6,2.4c0.3,0.8,0.7,1.6,1.3,2.4c0.5,0.7,1.1,1.3,1.9,1.8c0.8,0.4,1.7,0.6,2.7,0.6c0.4,0,0.8-0.2,1.2-0.4
				c0.3-0.2,0.6-0.5,0.9-1c0.3-0.4,0.4-1,0.5-1.8c2.8-0.9,5.4-1.6,7.7-2.1c1-0.2,2-0.4,2.9-0.6c1-0.2,1.8-0.3,2.6-0.3
				c0.8,0,1.5,0,2,0.1c0.5,0.1,0.9,0.4,1.1,0.7c0,0,0,0.1,0,0.1l0,0.4c-0.1,0.2,0,0.4,0.1,0.4c0.1,0.1,0.2,0,0.4-0.1
				c0.3-0.2,0.6-0.6,0.9-1c0.3-0.4,0.4-1,0.5-1.7c0-0.7-0.1-1.2-0.4-1.6C58,31.4,57.5,31.1,56.9,31z"/>
			<path d="M50.3,26.9c0.4,0,0.8-0.2,1.3-0.6c0.5-0.4,1-0.8,1.4-1.3c0.1-0.1,0.1-0.3,0.1-0.4c0-0.1,0-0.3,0.1-0.4
				c0.1-0.4,0.2-0.7,0.3-1.1c0.1-0.4,0.3-0.7,0.4-1.1c-0.2,0.2-0.3,0.3-0.5,0.5c-0.2,0.1-0.4,0.2-0.7,0.3c-0.3,0-0.5,0-0.5-0.1
				c-0.1-0.1-0.1-0.3,0-0.5l0.1-0.2l0-0.1c0.1-0.2,0.2-0.4,0.3-0.8c0.1-0.4,0-0.6-0.4-0.8c-0.3-0.1-0.6-0.1-0.9,0.2
				c-0.4,0.3-0.7,0.6-1,1.1c-0.3,0.5-0.6,1-0.9,1.6c-0.3,0.6-0.4,1.2-0.5,1.7c-0.1,0.5,0,1,0.2,1.3C49.4,26.7,49.8,26.9,50.3,26.9z"
				/>
			<g id="list-3_10_">
				<path d="M6.9,11.7l8.7,37.1l58-5.6l2.2-41.8L6.9,11.7z M48,22.9c0.3-0.6,0.6-1,0.8-1.4c0.4-0.7,1-1.3,1.7-2c0.7-0.7,1.4-1,2.2-1
					c0.1,0,0.3,0,0.5,0c0.2,0,0.4,0.1,0.6,0.2c0.4,0.2,0.6,0.5,0.7,0.9c0.1,0.4,0.1,0.8-0.1,1.3l0,0l0.1,0c0.3-0.3,0.6-0.3,1-0.2
					c0,0,0.1,0,0.1,0c0.6,0.2,0.9,0.6,1.1,1c0.1,0.2,0.2,0.5,0.1,0.8c-0.3,0.8-0.6,1.6-0.8,2.4c-0.2,0.9-0.3,1.6-0.3,2.4
					c0,0.7,0.3,1.4,0.7,1.9l0.1,0.2c0.1,0.1,0.1,0.2,0,0.3c-0.1,0.2-0.3,0.3-0.6,0.3c-0.6,0.1-1.1,0-1.6-0.1
					c-0.4-0.1-0.7-0.4-1.1-0.7c-0.3-0.4-0.5-0.9-0.5-1.7c-0.5,0.8-1.1,1.4-1.8,2c-0.7,0.6-1.5,0.8-2.5,0.8c-0.6-0.1-1.1-0.3-1.4-0.6
					c-0.3-0.4-0.5-0.8-0.5-1.3c-0.1-0.5,0-1.1,0.1-1.8c0.1-0.6,0.3-1.3,0.6-1.9C47.5,24.1,47.7,23.5,48,22.9z M40.8,20.5
					c0.1,0.1,0.3,0.2,0.5,0.5c0.2,0.3,0.2,0.6,0,1c-0.1,0.3-0.3,0.6-0.5,1c-0.2,0.4-0.3,0.8-0.5,1.3c-0.1,0.2-0.1,0.3-0.2,0.5
					c-0.1,0.1-0.1,0.3-0.2,0.5c0.1-0.1,0.2-0.4,0.4-0.8c0.2-0.4,0.4-0.8,0.8-1.3c0.3-0.5,0.7-1,1.2-1.5c0.5-0.5,1.1-1,1.8-1.4
					c0.1-0.1,0.1-0.1,0.2-0.2c0.1,0,0.2-0.1,0.2-0.1c0.3-0.1,0.5-0.2,0.9-0.3c0.3-0.1,0.6,0,0.8,0.2c0.4,0.3,0.5,0.7,0.4,1.1
					c-0.1,0.4-0.2,0.8-0.4,1.1c-0.1,0.3-0.2,0.6-0.4,0.9c-0.1,0.3-0.3,0.6-0.3,0.8c-0.1,0.3-0.1,0.5-0.1,0.7c0,0.2,0.1,0.3,0.3,0.4
					c0.1,0.1,0.1,0.2,0.2,0.3c0,0.1,0,0.2-0.2,0.3c-0.2,0.1-0.4,0.2-0.7,0.3c-0.3,0.1-0.6,0.2-0.9,0.3c-0.3,0.1-0.7,0.1-1,0.1
					c-0.3,0-0.6-0.1-0.8-0.3c-0.1-0.1-0.3-0.3-0.4-0.4c-0.1-0.2,0-0.6,0.2-1.2l0-0.1c-0.1,0-0.1,0-0.1,0c-0.3,0.3-0.5,0.7-0.8,1.3
					c-0.3,0.5-0.5,1.1-0.7,1.7c-0.2,0.6-0.3,1.2-0.4,1.8c-0.1,0.6,0,1.1,0.2,1.5c0,0.2,0,0.3,0,0.4c-0.1,0.2-0.2,0.3-0.3,0.4
					c-0.1,0-0.1,0-0.1,0c-0.8,0-1.4-0.1-1.9-0.2c-0.5-0.1-0.9-0.3-1.1-0.5c-0.3-0.2-0.5-0.4-0.6-0.7c-0.1-0.3-0.1-0.6-0.2-0.9
					c0-0.8,0.1-1.5,0.2-2.2c0.1-0.7,0.3-1.3,0.5-2c0.2-0.6,0.4-1.3,0.7-1.9c0.3-0.6,0.5-1.3,0.9-2.1c0.1-0.3,0.4-0.4,0.7-0.4
					c0.4,0,0.6,0,0.7,0.1c0.1,0,0.2,0,0.3,0.1C40.5,20.3,40.6,20.4,40.8,20.5z M58.2,35c-0.3,0.4-0.6,0.8-0.9,1
					c-0.1,0.1-0.2,0.1-0.4,0.1c-0.1,0-0.2-0.1-0.1-0.4l0-0.4c0-0.1,0-0.1,0-0.1c-0.2-0.3-0.5-0.6-1.1-0.7c-0.5-0.1-1.2-0.2-2-0.1
					c-0.8,0-1.7,0.1-2.6,0.3c-1,0.2-1.9,0.4-2.9,0.6c-2.3,0.5-4.9,1.2-7.7,2.1c-0.1,0.8-0.3,1.4-0.5,1.8c-0.3,0.4-0.6,0.7-0.9,1
					c-0.3,0.3-0.7,0.4-1.2,0.4c-1.1,0.1-2-0.1-2.7-0.6c-0.8-0.4-1.4-1-1.9-1.8c-0.6-0.8-1-1.6-1.3-2.4c-0.3-0.8-0.5-1.6-0.6-2.4
					c-0.1-0.8-0.2-1.5-0.2-2.1c0-0.6,0-1.1,0-1.4c0.1-0.8,0.2-1.6,0.3-2.4c0.1-0.8,0.3-1.6,0.6-2.3c0-0.1,0.2-0.5,0.3-1.2
					c0.2-0.7,0.4-1.5,0.8-2.5c-0.9,1.4-1.6,2.6-2,3.8c-0.4,1.2-0.7,2.2-0.9,3.2c-0.1,0.9-0.2,1.7-0.1,2.4c0,0.7,0.1,1.1,0.1,1.4
					c0,0.2,0,0.2-0.1,0.3c-0.1,0-0.1,0.1-0.2,0.1c-0.4,0-0.7,0-0.9,0c-0.2,0-0.4-0.1-0.5-0.1c-0.1,0-0.2-0.1-0.3-0.2
					c-0.5-0.2-0.9-0.4-1.2-0.8c-0.3-0.4-0.5-0.9-0.6-1.4c-0.1-0.5-0.1-1.1-0.1-1.7c0-0.6,0.1-1.3,0.2-1.9c0.3-1.5,0.8-3.1,1.6-4.9
					c-0.6,0.9-1.2,1.8-1.6,2.8c-0.4,0.8-0.8,1.7-1.2,2.8c-0.4,1-0.6,2-0.7,3c-0.2,1.2-0.1,2.3,0.2,3.1c0.3,0.8,0.6,1.4,0.8,1.7
					c0.1,0.1,0,0.3,0,0.3c-0.1,0.1-0.2,0.1-0.2,0.2c-0.3,0.1-0.6,0.2-0.9,0.2c-0.3,0-0.5,0-0.7,0c-0.2,0-0.4-0.1-0.6-0.2
					c-1.1-0.3-1.8-1-2.1-2c-0.3-1-0.4-2.1-0.3-3.4c0.1-1.3,0.4-2.6,0.9-4c0.5-1.4,1-2.7,1.5-3.9c0.5-1.2,1.1-2.2,1.5-3
					c0.5-0.8,0.7-1.3,0.8-1.3c0.1-0.3,0.1-0.4,0-0.5c-0.1-0.1-0.2-0.1-0.3-0.1c-0.1,0-0.1,0-0.1,0.1c-1.2,0.6-2.1,1.3-2.8,2.1
					c-0.7,0.8-1.2,1.5-1.5,2.2c-0.3,0.7-0.5,1.3-0.6,1.8c-0.1,0.5-0.1,0.8-0.1,1c0,0.2,0,0.4,0.1,0.4c0.1,0,0.2,0,0.3,0
					c0.2-0.1,0.3-0.1,0.5-0.1c0.1,0.1,0.1,0.1,0.1,0.2l0,0.1c-0.1,0.3-0.2,0.5-0.3,0.7c-0.1,0.2-0.3,0.3-0.6,0.5
					c-0.2,0.2-0.6,0.3-1,0.4c-0.8,0.2-1.5,0.1-2.1-0.3c-0.5-0.4-0.9-0.8-1.2-1.4c-0.1-0.3-0.2-0.6-0.3-1.1c0-0.5,0-1.1,0.2-1.7
					c0.2-0.7,0.6-1.5,1.2-2.3c0.6-0.9,1.5-1.8,2.8-2.8c1-0.8,2-1.3,2.9-1.7c0.8-0.4,1.7-0.6,2.5-0.6c0.9,0,1.6,0.3,2.1,1.1
					c0.2,0.3,0.4,0.6,0.5,1.1c0.1,0.4,0.1,0.9,0.1,1.4c0,0.6-0.1,1.3-0.4,2.1c0.1-0.5,0.3-1,0.6-1.5c0.2-0.4,0.5-0.9,0.7-1.4
					c0.3-0.5,0.6-1,1.1-1.4c0.3-0.4,0.7-0.5,1-0.5c0.3,0.1,0.6,0.2,0.8,0.4c0.3,0.2,0.5,0.5,0.7,0.9c0.2,0.3,0.3,0.6,0.5,0.8
					c0,0,0,0.1,0,0.1c0,0.1,0,0.1-0.1,0.2c-0.2,0.3-0.4,0.7-0.6,1.1c-0.2,0.4-0.4,0.8-0.5,1.2c-0.2,0.4-0.4,0.9-0.5,1.4
					c0.9-1.6,1.7-2.8,2.4-3.7c0.7-0.9,1.3-1.6,1.9-2.1c0.7-0.6,1.1-0.9,1.4-0.9c0.2,0,0.5,0.1,0.8,0.3c0.1,0.1,0.2,0.2,0.4,0.3
					c0.1,0.1,0.3,0.2,0.4,0.3c0.6,0.5,1,1,1.2,1.3c0.1,0.1,0.1,0.1,0.1,0.2c0,0.1,0,0.2-0.2,0.3c-0.7,0.5-1.4,1.2-1.9,1.9
					c-0.5,0.7-0.9,1.5-1.3,2.3c-0.3,0.8-0.6,1.5-0.8,2.3c-0.2,0.7-0.3,1.4-0.4,2c-0.1,0.3-0.1,0.6-0.2,1c0,0.3-0.1,0.6-0.1,1l0,0
					c0,0.1,0,0.3,0,0.4c0,0.1,0,0.3,0,0.4c0,0.2,0,0.3,0,0.5c0,0.2,0,0.3,0,0.5c0,0.3,0,0.7,0,1.1c0,0.5,0.1,1,0.1,1.6
					c0.1,0.8,0.3,1.7,0.5,2.6c0.2,0.9,0.6,1.7,1,2.3c0.2,0.2,0.3,0.4,0.5,0.6c0.2,0.2,0.3,0.2,0.5,0.2c0.2,0,0.3-0.1,0.4-0.2
					c0.1-0.2,0.2-0.3,0.2-0.5c0.1-0.2,0.1-0.5,0.2-0.7c-0.6-0.2-1.1-0.5-1.4-1c-0.3-0.5-0.4-1-0.4-1.5c0-0.5,0.2-1,0.5-1.4
					c0.3-0.4,0.8-0.7,1.3-0.7c0.5-0.1,1,0,1.2,0.2c0.3,0.2,0.5,0.5,0.7,0.8c0.2,0.3,0.3,0.7,0.4,1.2c0.1,0.1,0.6-0.1,1.4-0.3
					c0.9-0.3,1.9-0.6,3-0.9c1.2-0.4,2.4-0.7,3.6-1.1c1.3-0.4,2.4-0.7,3.3-0.9c0.9-0.2,1.8-0.3,2.6-0.4c0.8,0,1.5,0,2.1,0.2
					c0.6,0.2,1.1,0.4,1.4,0.8c0.3,0.4,0.4,0.9,0.4,1.6C58.6,34,58.5,34.6,58.2,35z M69.4,18.8c-0.1,0.4-0.2,0.7-0.4,1
					c-0.2,0.3-0.3,0.6-0.5,0.8c-0.2,0.3-0.5,0.5-0.8,0.7c-0.3,0.2-0.7,0.3-1,0.4c-0.3,0.1-0.6,0.1-0.9,0.1c-0.3,0-0.4,0-0.5,0
					c-0.2,0-0.3,0-0.3-0.1c0-0.1,0-0.2,0-0.2c0.2-0.5,0.5-1.2,0.9-1.9c0-0.1,0.1-0.2,0.1-0.3c0-0.2-0.2-0.2-0.5,0l-0.3,0.2
					c0,0,0,0,0,0c0,0,0,0,0,0c-0.1,0.1-0.2,0.2-0.3,0.3c-0.1,0.1-0.2,0.2-0.3,0.4c-0.1,0.1-0.2,0.2-0.3,0.3c-0.1,0.1-0.2,0.2-0.3,0.3
					c-0.3,0.3-0.4,0.6-0.5,0.9c-0.1,0.3-0.1,0.4-0.2,0.5l0,0.1c-0.1,0.5-0.1,0.9,0,1.3c0.1,0.3,0.3,0.6,0.6,0.8
					c0.3,0.2,0.6,0.4,0.9,0.5c0.3,0.1,0.6,0.2,0.9,0.2c0.5,0,1,0,1.6-0.2c0.2,0,0.4,0,0.6,0.1c0.2,0.1,0.2,0.4,0,0.9
					c-0.3,0.6-0.7,1.2-1.3,1.7c-0.5,0.5-1.2,0.9-1.9,1l-0.1,0l0,0c-0.2,0.1-0.4,0.1-0.6,0.1c-0.2,0-0.3,0-0.5-0.1l-0.4-0.1
					c-0.8-0.3-1.2-0.8-1.3-1.7c-0.1-0.9-0.1-1.8,0.2-2.9c-0.3,0.6-0.6,1.3-0.8,2c-0.2,0.7-0.4,1.5-0.6,2.4c-0.1,0.4-0.1,0.6-0.2,0.8
					c-0.1,0.2-0.2,0.3-0.4,0.2c-0.1,0-0.2,0-0.4,0c-0.2,0-0.4-0.1-0.6-0.2c-0.2-0.1-0.5-0.3-0.7-0.5c-0.2-0.2-0.4-0.5-0.6-0.9
					c-0.1-0.3-0.2-0.7-0.2-1.1c0-0.4,0-0.8,0.1-1.3c0.1-0.4,0.1-0.9,0.3-1.3c0.1-0.4,0.2-0.8,0.3-1.1c0-0.1,0.2-0.5,0.4-1.2
					c0.2-0.7,0.5-1.5,0.8-2.5c0.3-1,0.7-2,1.2-3.1c0.4-1.1,0.9-2.1,1.4-3.1c0.5-1,1-1.8,1.5-2.5c0.5-0.7,1-1.2,1.5-1.3
					c0,0,0.1,0,0.2-0.1c0.1,0,0.1,0,0.2-0.1c0.1,0,0.2-0.1,0.3-0.1c0.4-0.1,0.9,0,1.5,0.1c0.5,0.1,0.9,0.7,1,1.6l0,0.1
					c0,0,0,0.1-0.1,0.2c-0.1,0.1-0.2,0.2-0.3,0.2c-0.5,0.1-1.1,0.5-1.7,1.2c-0.6,0.7-1.2,1.5-1.8,2.6c-0.6,1-1.2,2.2-1.8,3.6
					c-0.6,1.3-1.2,2.8-1.8,4.3c0.2-0.2,0.5-0.6,0.9-1.2c0.4-0.6,1-1.2,1.6-1.9c0.6-0.7,1.2-1.3,1.9-1.9c0.7-0.6,1.4-0.9,2.1-1.1
					c0.2-0.1,0.5-0.1,0.7-0.1c0.2,0,0.4,0,0.6,0c0.2,0,0.4,0.1,0.6,0.2c0.3,0.2,0.4,0.4,0.5,0.7C69.5,18.1,69.5,18.5,69.4,18.8z"/>
			</g>
		</g>
	</g>
	<g id="dev-3">
		<g>
			<path class="st0" d="M66.3,59.2c-0.2,0.2-0.3,0.4-0.5,0.6c-0.2,0.4-0.5,0.8-0.8,1.3c-0.3,0.5-0.7,1-1.2,1.6
				c-0.4,0.5-0.9,1.1-1.5,1.6c-0.5,0.5-1.1,0.9-1.8,1.3c-1,0.5-1.7,0.6-2.3,0.2c-0.6-0.4-1-1-1.3-1.9c-0.3-0.9-0.4-1.9-0.4-3.1
				c0-1.2,0-2.3,0.2-3.4c0.1-1.1,0.3-2,0.5-2.8c0.2-0.8,0.5-1.3,0.7-1.4c0.7-0.1,1.3,0,1.7,0.2c0.4,0.2,0.7,0.4,0.7,0.5
				c0.1,0.1,0.1,0.2,0.2,0.3c0.1,0.2,0.3,0.5,0.3,0.9c0.1,0.3,0.2,0.6,0.4,0.8c0.2,0.1,0.4,0.2,0.7,0.3c0.3,0.1,0.7-0.1,1.2-0.4
				c0.4-0.3,0.9-0.8,1.3-1.3c0.5-0.5,0.9-1.1,1.3-1.7c0.4-0.6,0.8-1.2,1.1-1.9c0.3-0.7,0.6-1.3,0.8-2c0.3-0.8,0.4-1.4,0.3-1.9
				c-0.1-0.5-0.2-0.8-0.3-1.1c-0.2-0.3-0.5-0.5-0.8-0.6c-0.2,0-0.3,0.1-0.5,0.3c-0.2,0.2-0.3,0.5-0.5,0.9c-0.2,0.4-0.3,0.8-0.5,1.3
				c-0.2,0.5-0.3,1-0.5,1.5c-0.1-0.7-0.3-1.4-0.6-2c-0.3-0.6-0.7-1-1.2-1.2c-0.3-0.1-0.8-0.2-1.4-0.2c-0.6,0-1.3,0.2-2,0.5
				c-0.7,0.4-1.5,0.9-2.2,1.8c-0.8,0.8-1.5,2-2.1,3.5c-0.8,0.3-1.6,0.6-2.3,0.9c-0.7,0.3-1.4,0.7-2,1c-0.7,0.4-1.3,0.8-1.9,1.2
				c-0.4,0.2-0.8,0.4-1.1,0.4c-0.3,0-0.6,0-0.8-0.1c-0.2-0.1-0.4-0.2-0.5-0.4c-0.1-0.2-0.2-0.4-0.3-0.5c-0.1-0.2-0.3-0.2-0.4-0.2
				c-0.1,0.1-0.2,0.2-0.3,0.3C45.2,55.3,45,56,45,56.7c0,0.7,0.1,1.2,0.3,1.6c0.2,0.5,0.5,1,0.9,1.3c0.6,0.5,1.2,0.6,1.9,0.5
				c0.7-0.1,1.3-0.5,2-1c0.7-0.5,1.4-1.1,2.1-1.9c0.7-0.7,1.4-1.4,2.1-2c-0.7,2.4-1,4.6-1,6.6c0.1,2,0.4,3.6,0.9,4.9
				c0.5,1.3,1.2,2.2,2,2.8c0.8,0.5,1.6,0.6,2.4,0.3c1-0.2,2-0.7,2.8-1.3c0.8-0.7,1.6-1.4,2.3-2.2c0.7-0.8,1.3-1.7,1.8-2.6
				c0.5-0.9,0.9-1.7,1.2-2.4c0.2-0.6,0.4-1.1,0.4-1.5c0-0.4-0.1-0.6-0.2-0.8C66.6,58.9,66.5,59,66.3,59.2z M59.7,48.9
				c0.5-0.5,0.9-0.7,1.3-0.9c0.4-0.1,0.9-0.1,1.3,0.1c0.2,0.1,0.4,0.4,0.6,0.7c0.1,0.3,0.2,0.7,0.3,1c0.1,0.4,0.1,0.7,0.2,1.1
				c0,0.4,0,0.7,0,1c-0.2,0.3-0.4,0.6-0.5,0.8c-0.2,0.2-0.3,0.4-0.5,0.5c-0.2,0.1-0.3,0.3-0.5,0.4c-0.3-0.9-0.7-1.5-1.4-1.8
				c-0.6-0.4-1.4-0.5-2.2-0.6C58.8,50.1,59.3,49.3,59.7,48.9z"/>
			<path class="st0" d="M78.7,51c-0.2-0.2-0.5-0.3-0.8-0.4c-0.3-0.1-0.6-0.1-0.9-0.1c-0.3,0-0.5,0-0.7,0.1c-0.2,0-0.4,0.1-0.5,0.1
				c-0.1,0-0.2,0.1-0.2,0.3c0,0.2,0.1,0.4,0.2,0.5c0.1,0.2,0.1,0.4,0.2,0.6c0,0.3,0,0.6,0,1c0,0.4-0.1,0.9-0.3,1.3
				c-0.1,0.5-0.3,1-0.5,1.5c-0.2,0.5-0.5,1-0.8,1.5c-0.1,0.1-0.2,0.2-0.2,0.3c0,0-0.1,0.1-0.1,0.2c-0.4,0.4-0.6,0.6-0.7,0.6
				c-0.1,0-0.2-0.2-0.2-0.5c0-0.3,0.1-0.7,0.2-1.2c0.1-0.5,0.3-1,0.5-1.6c0.2-0.6,0.5-1.1,0.7-1.6c0.3-0.5,0.5-1,0.8-1.4
				c0.2-0.3,0.2-0.5,0.1-0.6c-0.2-0.1-0.4-0.2-0.7-0.3c-0.3,0-0.8-0.1-1.2-0.1c-0.3,0-0.4,0.1-0.5,0.3c0,0.1-0.2,0.5-0.5,1.2
				c-0.3,0.8-0.6,1.8-0.9,3c-0.3,1.1-0.8,2.2-1.5,3.1c-0.5,0.4-0.9,0.6-1,0.5c-0.2-0.1-0.2-0.3-0.2-0.7c0-0.4,0.2-0.9,0.4-1.5
				c0.2-0.6,0.4-1.2,0.7-1.8c0.3-0.6,0.5-1.1,0.8-1.6c0.2-0.5,0.4-0.7,0.6-0.9c0.3-0.2,0.3-0.4,0.2-0.6c-0.2-0.1-0.4-0.2-0.7-0.3
				c-0.3-0.1-0.6-0.1-0.9-0.1c-0.3,0-0.4,0-0.4,0c-0.1,0-0.1,0-0.2,0.1c-0.1,0.1-0.2,0.2-0.4,0.5c-0.2,0.3-0.4,0.8-0.6,1.4
				c-0.2,0.6-0.5,1.6-0.8,2.7c-0.1,0.4-0.2,1-0.2,1.6c0,0.6,0,1.2,0.2,1.8c0.2,0.5,0.4,1,0.8,1.3c0.4,0.3,0.8,0.4,1.5,0.2
				c0.2-0.1,0.5-0.2,0.8-0.5c0.3-0.3,0.6-0.8,1-1.5c0.4,1,1.1,1.4,2.1,1.1c0.1,0,0.1,0,0.2-0.1c0.1,0,0.1,0,0.2-0.1
				c0.3-0.1,0.5-0.2,0.7-0.4c0.2-0.2,0.4-0.4,0.6-0.6c0.2-0.2,0.3-0.3,0.4-0.5c0.1-0.1,0.1-0.1,0.1,0c0.4-0.5,0.7-0.8,0.9-1.1
				c0.1-0.2,0.2-0.4,0.3-0.5c0.9-1.3,1.5-2.4,1.8-3.3c0.3-0.9,0.4-1.6,0.3-2C79.1,51.5,78.9,51.2,78.7,51z"/>
			<path d="M61.8,53.6c0.1-0.1,0.3-0.3,0.5-0.4c0.1-0.1,0.3-0.3,0.5-0.5c0.2-0.2,0.4-0.5,0.5-0.8c0-0.3,0-0.6,0-1
				c0-0.4-0.1-0.7-0.2-1.1c-0.1-0.4-0.2-0.7-0.3-1c-0.1-0.3-0.3-0.6-0.6-0.7c-0.4-0.2-0.8-0.2-1.3-0.1c-0.4,0.1-0.8,0.4-1.3,0.9
				c-0.5,0.5-0.9,1.2-1.4,2.3c0.8,0,1.5,0.2,2.2,0.6C61.1,52.1,61.6,52.8,61.8,53.6z"/>
			<path id="list-2_9_" d="M42.1,39.7l0.6,43.1L81,69.1l2.9-31.7L42.1,39.7z M66.7,61.3c-0.3,0.7-0.7,1.5-1.2,2.4
				c-0.5,0.9-1.1,1.7-1.8,2.6c-0.7,0.8-1.4,1.6-2.3,2.2c-0.8,0.7-1.8,1.1-2.8,1.3c-0.8,0.3-1.6,0.2-2.4-0.3c-0.8-0.5-1.5-1.5-2-2.8
				c-0.5-1.3-0.8-3-0.9-4.9c-0.1-2,0.2-4.2,1-6.6c-0.7,0.6-1.4,1.3-2.1,2c-0.7,0.7-1.4,1.3-2.1,1.9c-0.7,0.5-1.4,0.9-2,1
				c-0.7,0.1-1.3,0-1.9-0.5c-0.4-0.4-0.7-0.8-0.9-1.3c-0.2-0.4-0.3-1-0.3-1.6c0-0.7,0.2-1.4,0.7-2.2c0.1-0.1,0.2-0.2,0.3-0.3
				c0.1-0.1,0.3,0,0.4,0.2c0.1,0.2,0.2,0.4,0.3,0.5c0.1,0.2,0.3,0.3,0.5,0.4c0.2,0.1,0.5,0.1,0.8,0.1c0.3,0,0.7-0.2,1.1-0.4
				c0.6-0.4,1.2-0.8,1.9-1.2c0.6-0.3,1.2-0.7,2-1c0.7-0.3,1.5-0.6,2.3-0.9c0.6-1.5,1.3-2.7,2.1-3.5c0.8-0.8,1.5-1.4,2.2-1.8
				c0.7-0.4,1.4-0.5,2-0.5c0.6,0,1.1,0.1,1.4,0.2c0.5,0.2,0.9,0.6,1.2,1.2c0.3,0.6,0.5,1.2,0.6,2c0.2-0.5,0.4-1,0.5-1.5
				c0.2-0.5,0.3-1,0.5-1.3c0.2-0.4,0.3-0.7,0.5-0.9c0.2-0.2,0.3-0.3,0.5-0.3c0.3,0.1,0.6,0.3,0.8,0.6c0.2,0.2,0.3,0.6,0.3,1.1
				c0.1,0.5,0,1.1-0.3,1.9c-0.2,0.7-0.5,1.3-0.8,2c-0.3,0.7-0.7,1.3-1.1,1.9c-0.4,0.6-0.8,1.2-1.3,1.7c-0.5,0.5-0.9,0.9-1.3,1.3
				c-0.5,0.3-0.9,0.5-1.2,0.4c-0.3,0-0.5-0.1-0.7-0.3c-0.2-0.2-0.3-0.4-0.4-0.8c-0.1-0.4-0.2-0.7-0.3-0.9c-0.1-0.1-0.1-0.2-0.2-0.3
				c-0.1-0.2-0.3-0.4-0.7-0.5c-0.4-0.2-1-0.3-1.7-0.2c-0.3,0.1-0.5,0.6-0.7,1.4c-0.2,0.8-0.4,1.8-0.5,2.8c-0.1,1.1-0.2,2.2-0.2,3.4
				c0,1.2,0.2,2.2,0.4,3.1c0.3,0.9,0.7,1.5,1.3,1.9c0.6,0.4,1.3,0.3,2.3-0.2c0.6-0.3,1.2-0.8,1.8-1.3c0.5-0.5,1-1,1.5-1.6
				c0.4-0.5,0.8-1.1,1.2-1.6c0.3-0.5,0.6-0.9,0.8-1.3c0.1-0.2,0.3-0.4,0.5-0.6c0.2-0.2,0.3-0.3,0.4-0.2c0.2,0.1,0.2,0.4,0.2,0.8
				C67,60.2,66.9,60.7,66.7,61.3z M78.8,53.9c-0.3,0.9-0.9,2-1.8,3.3c-0.1,0.2-0.2,0.4-0.3,0.5c-0.2,0.3-0.5,0.7-0.9,1.1
				c0-0.1,0-0.1-0.1,0c-0.1,0.1-0.2,0.3-0.4,0.5c-0.2,0.2-0.4,0.4-0.6,0.6c-0.2,0.2-0.5,0.3-0.7,0.4c-0.1,0-0.1,0-0.2,0.1
				c-0.1,0-0.1,0-0.2,0.1c-1.1,0.3-1.8-0.1-2.1-1.1c-0.3,0.7-0.7,1.2-1,1.5c-0.3,0.3-0.6,0.5-0.8,0.5c-0.6,0.2-1.1,0.1-1.5-0.2
				c-0.4-0.3-0.6-0.7-0.8-1.3c-0.2-0.5-0.2-1.1-0.2-1.8c0-0.6,0.1-1.2,0.2-1.6c0.3-1.2,0.6-2.1,0.8-2.7c0.2-0.6,0.4-1.1,0.6-1.4
				c0.2-0.3,0.3-0.5,0.4-0.5c0.1-0.1,0.2-0.1,0.2-0.1c0,0,0.1,0,0.4,0c0.3,0,0.6,0.1,0.9,0.1c0.3,0.1,0.5,0.2,0.7,0.3
				c0.2,0.1,0.1,0.3-0.2,0.6c-0.1,0.1-0.3,0.4-0.6,0.9c-0.2,0.5-0.5,1-0.8,1.6c-0.3,0.6-0.5,1.2-0.7,1.8c-0.2,0.6-0.3,1.1-0.4,1.5
				c0,0.4,0,0.6,0.2,0.7c0.2,0.1,0.5-0.1,1-0.5c0.7-1,1.2-2,1.5-3.1c0.3-1.2,0.6-2.3,0.9-3c0.3-0.8,0.5-1.2,0.5-1.2
				c0-0.1,0.2-0.2,0.5-0.3c0.5,0,0.9,0,1.2,0.1c0.3,0.1,0.5,0.2,0.7,0.3c0.2,0.1,0.1,0.3-0.1,0.6c-0.3,0.4-0.6,0.8-0.8,1.4
				c-0.3,0.5-0.5,1.1-0.7,1.6c-0.2,0.6-0.4,1.1-0.5,1.6c-0.1,0.5-0.2,0.9-0.2,1.2c0,0.3,0.1,0.5,0.2,0.5c0.1,0,0.4-0.2,0.7-0.6
				c0-0.1,0.1-0.1,0.1-0.2c0-0.1,0.1-0.1,0.2-0.3c0.3-0.5,0.6-0.9,0.8-1.5c0.2-0.5,0.4-1,0.5-1.5c0.1-0.5,0.2-0.9,0.3-1.3
				c0-0.4,0.1-0.8,0-1c0-0.2-0.1-0.4-0.2-0.6c-0.1-0.2-0.1-0.3-0.2-0.5c0-0.1,0-0.2,0.2-0.3c0.1,0,0.3-0.1,0.5-0.1
				c0.2,0,0.4,0,0.7-0.1c0.3,0,0.6,0,0.9,0.1c0.3,0.1,0.6,0.2,0.8,0.4c0.2,0.2,0.4,0.5,0.4,0.9C79.2,52.4,79,53,78.8,53.9z"/>
		</g>
	</g>
</svg>
